# Exported from Wings 3D 2.1.5
mtllib rock.mtl
o rock
#8 vertices, 6 faces
v -0.72062618 -0.11120438 -1.22080786
v -1.07771732 -0.14921306 1.12785917
v -0.50018260 1.51813385 -0.62670484
v -0.59785514 1.69603280 0.55720006
v 0.94726832 -8.5461882e-2 -0.95453103
v 0.90740378 -9.5725947e-2 0.88246033
v 0.43932990 1.23411772 -0.45624609
v 0.37158251 1.56603934 0.73331875
vt 0.0000000e+0 1.8060967e-2
vt 0.0000000e+0 0.66600414
vt 0.0000000e+0 0.72985074
vt 6.6269281e-3 0.35910548
vt 8.3637904e-2 0.96555667
vt 0.10066285 0.29218685
vt 0.24622133 1.00000000
vt 0.27868326 0.71044691
vt 0.28113658 0.73425124
vt 0.28113658 0.71044691
vt 0.29477571 0.93393551
vt 0.29963632 0.31802601
vt 0.33837724 0.31802601
vt 0.39646979 0.0000000e+0
vt 0.39646979 0.32035075
vt 0.42132348 0.61195619
vt 0.44501926 0.71044691
vt 0.45979954 0.91601231
vt 0.47900157 0.31961717
vt 0.62009815 0.55575367
vt 0.64193525 0.29460036
vt 0.70334063 0.31961717
vt 0.72792170 1.6954638e-2
vn -0.55281760 -0.32379667 -0.76782057
vn -0.66654749 -0.43516555 0.60526472
vn -0.26813523 0.74488136 -0.61094620
vn -0.42364024 0.81418936 0.39701968
vn 0.76326525 -0.20625361 -0.61227902
vn 0.67874473 -0.31947840 0.66124061
vn 0.57039058 0.68136451 -0.45869052
vn 0.58494769 0.71602595 0.38097643
g rock_Cube1_auv
usemtl Cube1_auv
s 1
f 1/8/1 5/2/5 6/4/6 2/13/2
f 2/14/2 4/12/4 3/6/3 1/1/1
f 2/14/2 6/23/6 8/21/8 4/19/4
f 3/7/3 7/5/7 5/3/5 1/10/1
f 4/9/4 8/17/8 7/18/7 3/11/3
f 5/22/5 7/20/7 8/16/8 6/15/6
